<svg width="20px" height="18px" viewBox="0 0 20 18" version="1.1" xmlns="http://www.w3.org/2000/svg" xmlns:xlink="http://www.w3.org/1999/xlink"><g id="20x18" stroke="none" stroke-width="1" fill="none" fill-rule="evenodd"><path d="M8,14 C9.10277778,14 10,14.8972222 10,16 C10,17.1027778 9.10277778,18 8,18 C6.89722222,18 6,17.1027778 6,16 C6,14.8972222 6.89722222,14 8,14 Z M16,14 C17.1027778,14 18,14.8972222 18,16 C18,17.1027778 17.1027778,18 16,18 C14.8972222,18 14,17.1027778 14,16 C14,14.8972222 14.8972222,14 16,14 Z M8,15.3333333 C7.63246529,15.3333333 7.33333333,15.6324653 7.33333333,16 C7.33333333,16.3675347 7.63246529,16.6666667 8,16.6666667 C8.36753471,16.6666667 8.66666667,16.3675347 8.66666667,16 C8.66666667,15.6324653 8.36753471,15.3333333 8,15.3333333 Z M16,15.3333333 C15.6324653,15.3333333 15.3333333,15.6324653 15.3333333,16 C15.3333333,16.3675347 15.6324653,16.6666667 16,16.6666667 C16.3675347,16.6666667 16.6666667,16.3675347 16.6666667,16 C16.6666667,15.6324653 16.3675347,15.3333333 16,15.3333333 Z M4.10156937,0 C4.37622804,0 4.61396039,0.189887133 4.67362232,0.456792544 L4.67362232,0.456792544 L5.09247681,2.33333333 L19.414095,2.33333333 C19.5979637,2.33333333 19.7711513,2.41931426 19.8819303,2.56545139 C19.9925567,2.71158852 20.0279572,2.90086806 19.9774505,3.07693143 L19.9774505,3.07693143 L17.6336965,11.2435981 C17.5618275,11.4939453 17.3318772,11.6666667 17.0703411,11.6666667 L17.0703411,11.6666667 L6.44379744,11.6668186 C6.12137866,11.6675781 5.85938482,11.9288629 5.85938482,12.25 C5.85938482,12.5715929 6.1222942,12.8333333 6.4453233,12.8333333 L6.4453233,12.8333333 L17.0703411,12.8333333 C17.3939806,12.8333333 17.6562796,13.0944662 17.6562796,13.4166667 C17.6562796,13.7388672 17.3939806,14 17.0703411,14 L17.0703411,14 L6.4453233,14 C5.47608339,14 4.68750785,13.2149306 4.68750785,12.25 C4.68750785,11.5319227 5.12436773,10.9138021 5.74707994,10.6443143 C5.63599577,10.1468099 3.70575574,1.49919704 3.63159788,1.16666667 L3.63159788,1.16666667 L0.585938482,1.16666667 C0.262299033,1.16666667 0,0.905533844 0,0.583333333 C0,0.261132822 0.262299033,0 0.585938482,0 L0.585938482,0 Z M18.6372688,3.5 L5.35279217,3.5 L6.91529479,10.5 L16.6282933,10.5 L18.6372688,3.5 Z" id="Combined-Shape" fill="#57555D" fill-rule="nonzero"></path></g></svg>