<svg xmlns="http://www.w3.org/2000/svg" width="12" height="20" viewBox="0 0 12 20"><g><g><path fill="#fff" d="M11.548.004L8.67 0C5.436 0 3.347 1.932 3.347 4.922v2.27H.453c-.25 0-.453.182-.453.407v3.289c0 .225.203.407.453.407h2.894v8.297c0 .226.202.408.452.408h3.776c.25 0 .452-.183.452-.408v-8.297h3.384c.25 0 .453-.182.453-.407l.001-3.289a.39.39 0 0 0-.132-.288.479.479 0 0 0-.32-.12H8.026V5.268c0-.925.245-1.394 1.582-1.394l1.939-.001c.25 0 .452-.183.452-.408V.412c0-.225-.202-.407-.452-.408z"></path></g></g></svg>