<svg width="21px" height="17px" viewBox="0 0 21 17" version="1.1" xmlns="http://www.w3.org/2000/svg" xmlns:xlink="http://www.w3.org/1999/xlink">
        <g id="02.-Collection" stroke="none" stroke-width="1" fill="none" fill-rule="evenodd">
            <g id="XL---Collection---Expanded-Filter" transform="translate(-1360.000000, -501.000000)" fill="#E8E8E8">
                <g id="Group-24" transform="translate(1354.500000, 509.500000) rotate(-90.000000) translate(-1354.500000, -509.500000) translate(1346.000000, 483.000000)">
                    <path d="M8,46.5 L8,52.5 L0,52.5 L0,46.5 L8,46.5 Z M17,46.5 L17,52.5 L9,52.5 L9,46.5 L17,46.5 Z M8,39.5 L8,45.5 L0,45.5 L0,39.5 L8,39.5 Z M17,39.5 L17,45.5 L9,45.5 L9,39.5 L17,39.5 Z M8,32.5 L8,38.5 L0,38.5 L0,32.5 L8,32.5 Z M17,32.5 L17,38.5 L9,38.5 L9,32.5 L17,32.5 Z" id="Combined-Shape"></path>
                </g>
            </g>
        </g>
    </svg>