<svg xmlns="http://www.w3.org/2000/svg" width="19" height="19" viewBox="0 0 19 19"><g><g><g><path fill="#fff" d="M14.284 5.33c-.816 0-1.48-.663-1.48-1.48 0-.815.664-1.48 1.48-1.48s1.48.665 1.48 1.48c0 .817-.664 1.48-1.48 1.48zM4.15 9.152a5.008 5.008 0 0 1 5.003-5.003 5.008 5.008 0 0 1 5.003 5.003 5.008 5.008 0 0 1-5.003 5.003A5.008 5.008 0 0 1 4.15 9.152zM13.357 0h-8.4A4.963 4.963 0 0 0 0 4.957v8.4a4.963 4.963 0 0 0 4.957 4.957h8.4a4.963 4.963 0 0 0 4.957-4.957v-8.4A4.963 4.963 0 0 0 13.357 0z"></path></g><g><path fill="#fff" d="M9.154 5.22A3.938 3.938 0 0 0 5.22 9.154a3.939 3.939 0 0 0 3.934 3.934 3.938 3.938 0 0 0 3.934-3.934A3.938 3.938 0 0 0 9.154 5.22z"></path></g><g><path fill="#fff" d="M14.286 3.44a.407.407 0 1 0 .001.813.407.407 0 0 0-.001-.813z"></path></g></g></g></svg>