<svg xmlns="http://www.w3.org/2000/svg" width="181" height="37" viewBox="0 0 181 37"><g><g><g><g><path fill="#1e1e1c" d="M8.25 21.304c0-1.751-1.047-2.203-2.593-2.203H3.462v17.37H.17V.33h6.136c3.144 0 5.089.55 5.089 4.154v9.161c0 2.802-1.047 3.754-3.592 3.905v.1c2.345.151 3.742.852 3.742 3.356v15.468H8.25zM5.658 16.3c1.546 0 2.444-.451 2.444-2.602V5.589c0-2.102-1.097-2.452-2.793-2.452H3.462v13.165h2.195z"></path></g><g><path fill="#1e1e1c" d="M23.76 6.137c0-3.554 1.347-6.107 5.787-6.107 4.44 0 5.787 2.553 5.787 6.107v24.529c0 3.554-1.347 6.107-5.787 6.107-4.44 0-5.787-2.553-5.787-6.107zm3.295 24.427c0 2.003.397 3.404 2.492 3.404 2.092 0 2.492-1.4 2.492-3.404V6.237c0-2.003-.398-3.404-2.492-3.404-2.092 0-2.492 1.4-2.492 3.404z"></path></g><g><path fill="#1e1e1c" d="M55.692.33h3.292v31.285c0 4.003-2.994 5.155-5.836 5.155-2.744 0-5.738-1.152-5.738-5.155V.33h3.292v30.234c0 2.602.848 3.404 2.495 3.404 1.696 0 2.495-.802 2.495-3.404V.33z"></path></g></g><g><path fill="#1e1e1c" d="M72.804 2.794H69V0h11v2.794h-3.804V36h-3.392z"></path></g><g><path fill="#1e1e1c" d="M91 0h9v2.794h-5.605v13.113h5.347v2.79h-5.347V33.21H100V36h-9z"></path></g><g><path fill="#1e1e1c" d="M124 6.15c0-3.58 1.397-6.15 6-6.15s6 2.57 6 6.15v24.7c0 3.58-1.397 6.15-6 6.15s-6-2.57-6-6.15zm3.413 24.607c0 2.018.414 3.429 2.592 3.429 2.176 0 2.592-1.411 2.592-3.429V6.251c0-2.018-.414-3.43-2.592-3.43-2.176 0-2.592 1.412-2.592 3.43z"></path></g><g><path fill="#1e1e1c" d="M157.063 0H160v36h-4.759l-4.204-32.01h-.1V36H148V0h4.86l4.103 30.816h.1z"></path></g><g><path fill="#1e1e1c" d="M172 0v36h9v-2.791h-5.606V18.698h5.35v-2.791h-5.35V2.794H181V0z"></path></g></g></g></svg>