<svg xmlns="http://www.w3.org/2000/svg" width="17" height="21" viewBox="0 0 17 21"><g><g><g><path fill="#fff" d="M8.72 0C3.034 0 .01 3.645.01 7.618c0 1.842 1.03 4.14 2.678 4.87.47.212.408-.047.813-1.594a.367.367 0 0 0-.088-.36c-2.357-2.727-.46-8.33 4.971-8.33 7.861 0 6.393 10.877 1.368 10.877-1.295 0-2.26-1.017-1.955-2.275.37-1.498 1.095-3.108 1.095-4.188 0-2.722-4.055-2.318-4.055 1.288 0 1.114.395 1.866.395 1.866s-1.305 5.27-1.547 6.255c-.41 1.667.055 4.365.096 4.597.025.128.169.169.249.063.129-.168 1.706-2.418 2.147-4.044.161-.592.82-2.995.82-2.995.436.785 1.69 1.442 3.025 1.442 3.973 0 6.845-3.493 6.845-7.826C16.853 3.109 13.297 0 8.72 0z"></path></g></g></g></svg>