<svg xmlns="http://www.w3.org/2000/svg" width="18" height="21" viewBox="0 0 18 21"><g><g><path fill="#fff" d="M17.311 4.499A3.903 3.903 0 0 1 13.412.6a.6.6 0 0 0-.6-.6H9.598a.6.6 0 0 0-.6.6v13.176a2.295 2.295 0 0 1-2.292 2.292 2.295 2.295 0 0 1-2.292-2.292 2.295 2.295 0 0 1 2.292-2.292.6.6 0 0 0 .6-.6V7.67a.6.6 0 0 0-.6-.6A6.714 6.714 0 0 0 0 13.776a6.714 6.714 0 0 0 6.706 6.706 6.714 6.714 0 0 0 6.706-6.706V7.944a8.254 8.254 0 0 0 3.9.969.6.6 0 0 0 .6-.6V5.099a.6.6 0 0 0-.6-.6z"></path></g></g></svg>