<svg xmlns="http://www.w3.org/2000/svg" width="20" height="16" viewBox="0 0 20 16"><g><g><path fill="#fff" d="M6.166 15.943c7.398 0 11.444-6.13 11.444-11.444 0-.174-.004-.348-.012-.52a8.185 8.185 0 0 0 2.007-2.083c-.72.32-1.497.536-2.31.633A4.037 4.037 0 0 0 19.064.304a8.067 8.067 0 0 1-2.554.977 4.023 4.023 0 0 0-6.854 3.668A11.42 11.42 0 0 1 1.363.746 4.013 4.013 0 0 0 .82 2.768a4.02 4.02 0 0 0 1.79 3.348 3.99 3.99 0 0 1-1.822-.503v.051a4.023 4.023 0 0 0 3.226 3.943 4.037 4.037 0 0 1-1.816.07 4.027 4.027 0 0 0 3.757 2.793A8.07 8.07 0 0 1 .96 14.192c-.324 0-.644-.019-.959-.056a11.386 11.386 0 0 0 6.166 1.807"></path></g></g></svg>