<svg xmlns="http://www.w3.org/2000/svg" width="21" height="17" viewBox="0 0 21 17"><g><g><g><path fill="#57555d" d="M10.15 12.386c-3.008 0-4.608-3.857-4.608-6.592a4.61 4.61 0 0 1 4.608-4.612 4.61 4.61 0 0 1 4.608 4.612c0 2.761-1.6 6.592-4.608 6.592zm3.61-.67a9.133 9.133 0 0 0 2.15-5.926 5.76 5.76 0 0 0-11.52 0 9.133 9.133 0 0 0 2.144 5.926A9.51 9.51 0 0 0 0 16.196l1.094.64a8.25 8.25 0 0 1 6.81-4.006c1.38.823 3.1.823 4.48 0a8.32 8.32 0 0 1 6.893 4.16l1.107-.64a9.6 9.6 0 0 0-6.624-4.634z"></path></g></g></g></svg>