<svg xmlns="http://www.w3.org/2000/svg" width="15" height="13" viewBox="0 0 15 13"><g><g><g><path fill="#3f3f3f" d="M8.657 10.43c-.478.407-.97.827-1.489 1.278-.519-.451-1.011-.87-1.49-1.278C2.766 7.947.84 6.307.84 4.15c0-.89.297-1.719.836-2.33A2.804 2.804 0 0 1 3.808.86c1.152 0 1.896.71 2.318 1.305a4.98 4.98 0 0 1 .643 1.278.42.42 0 0 0 .798 0 4.98 4.98 0 0 1 .643-1.278C8.632 1.569 9.376.86 10.528.86c.83 0 1.586.34 2.132.96.54.611.836 1.44.836 2.33 0 2.157-1.925 3.797-4.839 6.28zm4.633-9.166A3.633 3.633 0 0 0 10.528.02c-1.51 0-2.467.902-3.003 1.659-.14.196-.258.393-.357.579a5.492 5.492 0 0 0-.357-.579C6.275.922 5.32.02 3.808.02a3.633 3.633 0 0 0-2.762 1.244C.37 2.03 0 3.054 0 4.15c0 1.193.466 2.303 1.466 3.492.893 1.063 2.179 2.158 3.668 3.427.555.473 1.128.962 1.739 1.496l.018.016a.419.419 0 0 0 .554 0l.018-.016c.61-.534 1.184-1.023 1.74-1.496 1.488-1.268 2.774-2.364 3.667-3.427 1-1.19 1.466-2.299 1.466-3.492 0-1.095-.371-2.12-1.046-2.886z"></path></g></g></g></svg>