<svg xmlns="http://www.w3.org/2000/svg" width="23" height="16" viewBox="0 0 23 16"><g><g><path fill="#fff" d="M8.625 12.354V3.636l7.178 4.359zM22.023 1.542C21.399.419 20.722.212 19.343.134 17.966.039 14.503 0 11.503 0c-3.006 0-6.47.04-7.846.132-1.376.08-2.054.285-2.684 1.41C.331 2.663 0 4.595 0 7.996v.011c0 3.386.33 5.333.973 6.442.63 1.123 1.307 1.327 2.683 1.422 1.377.081 4.841.129 7.847.129 3 0 6.463-.048 7.841-.128 1.379-.095 2.056-.298 2.68-1.421.648-1.11.976-3.056.976-6.442V8v-.004c0-3.402-.328-5.334-.977-6.455z"></path></g></g></svg>